solid Default
  facet normal 0.000000e+00 1.000000e+00 0.000000e+00
    outer loop
      vertex -9.000000e+01 -4.050000e+01 3.200001e+00
      vertex -4.964237e+01 -4.050000e+01 3.200001e+00
      vertex -9.000000e+01 -4.050000e+01 8.305164e-07
    endloop
  endfacet
  facet normal 0.000000e+00 1.000000e+00 0.000000e+00
    outer loop
      vertex -9.000000e+01 -4.050000e+01 8.305164e-07
      vertex -4.964237e+01 -4.050000e+01 3.200001e+00
      vertex -4.964237e+01 -4.050000e+01 8.305164e-07
    endloop
  endfacet
  facet normal -1.000000e+00 0.000000e+00 0.000000e+00
    outer loop
      vertex -9.000000e+01 -5.950000e+01 3.200000e+00
      vertex -9.000000e+01 -4.050000e+01 3.200001e+00
      vertex -9.000000e+01 -5.950000e+01 0.000000e+00
    endloop
  endfacet
  facet normal -1.000000e+00 0.000000e+00 0.000000e+00
    outer loop
      vertex -9.000000e+01 -5.950000e+01 0.000000e+00
      vertex -9.000000e+01 -4.050000e+01 3.200001e+00
      vertex -9.000000e+01 -4.050000e+01 8.305164e-07
    endloop
  endfacet
  facet normal -0.000000e+00 -1.000000e+00 -0.000000e+00
    outer loop
      vertex -4.964237e+01 -5.950000e+01 3.200000e+00
      vertex -9.000000e+01 -5.950000e+01 3.200000e+00
      vertex -4.964237e+01 -5.950000e+01 0.000000e+00
    endloop
  endfacet
  facet normal 0.000000e+00 -1.000000e+00 0.000000e+00
    outer loop
      vertex -4.964237e+01 -5.950000e+01 0.000000e+00
      vertex -9.000000e+01 -5.950000e+01 3.200000e+00
      vertex -9.000000e+01 -5.950000e+01 0.000000e+00
    endloop
  endfacet
  facet normal 2.441765e-01 -9.697308e-01 0.000000e+00
    outer loop
      vertex -4.964237e+01 -5.950000e+01 3.200000e+00
      vertex -4.964237e+01 -5.950000e+01 0.000000e+00
      vertex -4.444932e+01 -5.819240e+01 5.715702e-08
    endloop
  endfacet
  facet normal 2.441765e-01 -9.697308e-01 0.000000e+00
    outer loop
      vertex -4.964237e+01 -5.950000e+01 3.200000e+00
      vertex -4.444932e+01 -5.819240e+01 5.715702e-08
      vertex -4.444932e+01 -5.819240e+01 3.200000e+00
    endloop
  endfacet
  facet normal 1.752814e-01 -9.845184e-01 0.000000e+00
    outer loop
      vertex -4.444932e+01 -5.819240e+01 3.200000e+00
      vertex -4.444932e+01 -5.819240e+01 5.715702e-08
      vertex -3.917707e+01 -5.725374e+01 9.818717e-08
    endloop
  endfacet
  facet normal 1.752814e-01 -9.845184e-01 0.000000e+00
    outer loop
      vertex -4.444932e+01 -5.819240e+01 3.200000e+00
      vertex -3.917707e+01 -5.725374e+01 9.818717e-08
      vertex -3.917707e+01 -5.725374e+01 3.200000e+00
    endloop
  endfacet
  facet normal 1.055193e-01 -9.944173e-01 0.000000e+00
    outer loop
      vertex -3.917707e+01 -5.725374e+01 3.200000e+00
      vertex -3.917707e+01 -5.725374e+01 9.818717e-08
      vertex -3.385182e+01 -5.668867e+01 1.228872e-07
    endloop
  endfacet
  facet normal 1.055193e-01 -9.944173e-01 0.000000e+00
    outer loop
      vertex -3.917707e+01 -5.725374e+01 3.200000e+00
      vertex -3.385182e+01 -5.668867e+01 1.228872e-07
      vertex -3.385182e+01 -5.668867e+01 3.200000e+00
    endloop
  endfacet
  facet normal 3.523138e-02 -9.993792e-01 0.000000e+00
    outer loop
      vertex -3.385182e+01 -5.668867e+01 3.200000e+00
      vertex -3.385182e+01 -5.668867e+01 1.228872e-07
      vertex -2.850000e+01 -5.650000e+01 1.311342e-07
    endloop
  endfacet
  facet normal 3.523138e-02 -9.993792e-01 0.000000e+00
    outer loop
      vertex -3.385182e+01 -5.668867e+01 3.200000e+00
      vertex -2.850000e+01 -5.650000e+01 1.311342e-07
      vertex -2.850000e+01 -5.650000e+01 3.200000e+00
    endloop
  endfacet
  facet normal -0.000000e+00 -1.000000e+00 -0.000000e+00
    outer loop
      vertex 2.850000e+01 -5.650000e+01 3.200000e+00
      vertex -2.850000e+01 -5.650000e+01 3.200000e+00
      vertex 2.850000e+01 -5.650000e+01 1.311342e-07
    endloop
  endfacet
  facet normal 0.000000e+00 -1.000000e+00 0.000000e+00
    outer loop
      vertex 2.850000e+01 -5.650000e+01 1.311342e-07
      vertex -2.850000e+01 -5.650000e+01 3.200000e+00
      vertex -2.850000e+01 -5.650000e+01 1.311342e-07
    endloop
  endfacet
  facet normal -3.523153e-02 -9.993792e-01 -0.000000e+00
    outer loop
      vertex 2.850000e+01 -5.650000e+01 3.200000e+00
      vertex 2.850000e+01 -5.650000e+01 1.311342e-07
      vertex 3.385180e+01 -5.668867e+01 1.228872e-07
    endloop
  endfacet
  facet normal -3.523153e-02 -9.993792e-01 0.000000e+00
    outer loop
      vertex 2.850000e+01 -5.650000e+01 3.200000e+00
      vertex 3.385180e+01 -5.668867e+01 1.228872e-07
      vertex 3.385180e+01 -5.668867e+01 3.200000e+00
    endloop
  endfacet
  facet normal -1.055184e-01 -9.944174e-01 -0.000000e+00
    outer loop
      vertex 3.385180e+01 -5.668867e+01 3.200000e+00
      vertex 3.385180e+01 -5.668867e+01 1.228872e-07
      vertex 3.917709e+01 -5.725374e+01 9.818717e-08
    endloop
  endfacet
  facet normal -1.055184e-01 -9.944174e-01 0.000000e+00
    outer loop
      vertex 3.385180e+01 -5.668867e+01 3.200000e+00
      vertex 3.917709e+01 -5.725374e+01 9.818717e-08
      vertex 3.917709e+01 -5.725374e+01 3.200000e+00
    endloop
  endfacet
  facet normal -1.752830e-01 -9.845181e-01 -0.000000e+00
    outer loop
      vertex 3.917709e+01 -5.725374e+01 3.200000e+00
      vertex 3.917709e+01 -5.725374e+01 9.818717e-08
      vertex 4.444930e+01 -5.819240e+01 5.715702e-08
    endloop
  endfacet
  facet normal -1.752830e-01 -9.845181e-01 0.000000e+00
    outer loop
      vertex 3.917709e+01 -5.725374e+01 3.200000e+00
      vertex 4.444930e+01 -5.819240e+01 5.715702e-08
      vertex 4.444930e+01 -5.819240e+01 3.200000e+00
    endloop
  endfacet
  facet normal -2.441742e-01 -9.697314e-01 -0.000000e+00
    outer loop
      vertex 4.444930e+01 -5.819240e+01 3.200000e+00
      vertex 4.444930e+01 -5.819240e+01 5.715702e-08
      vertex 4.964240e+01 -5.950000e+01 0.000000e+00
    endloop
  endfacet
  facet normal -2.441742e-01 -9.697314e-01 0.000000e+00
    outer loop
      vertex 4.444930e+01 -5.819240e+01 3.200000e+00
      vertex 4.964240e+01 -5.950000e+01 0.000000e+00
      vertex 4.964240e+01 -5.950000e+01 3.200000e+00
    endloop
  endfacet
  facet normal -0.000000e+00 -1.000000e+00 -0.000000e+00
    outer loop
      vertex 9.000000e+01 -5.950000e+01 3.200000e+00
      vertex 4.964240e+01 -5.950000e+01 3.200000e+00
      vertex 9.000000e+01 -5.950000e+01 0.000000e+00
    endloop
  endfacet
  facet normal 0.000000e+00 -1.000000e+00 0.000000e+00
    outer loop
      vertex 9.000000e+01 -5.950000e+01 0.000000e+00
      vertex 4.964240e+01 -5.950000e+01 3.200000e+00
      vertex 4.964240e+01 -5.950000e+01 0.000000e+00
    endloop
  endfacet
  facet normal 1.000000e+00 0.000000e+00 0.000000e+00
    outer loop
      vertex 9.000000e+01 -4.050000e+01 3.200001e+00
      vertex 9.000000e+01 -5.950000e+01 3.200000e+00
      vertex 9.000000e+01 -4.050000e+01 8.305164e-07
    endloop
  endfacet
  facet normal 1.000000e+00 0.000000e+00 0.000000e+00
    outer loop
      vertex 9.000000e+01 -4.050000e+01 8.305164e-07
      vertex 9.000000e+01 -5.950000e+01 3.200000e+00
      vertex 9.000000e+01 -5.950000e+01 0.000000e+00
    endloop
  endfacet
  facet normal 0.000000e+00 1.000000e+00 0.000000e+00
    outer loop
      vertex 4.964240e+01 -4.050000e+01 3.200001e+00
      vertex 9.000000e+01 -4.050000e+01 3.200001e+00
      vertex 4.964240e+01 -4.050000e+01 8.305164e-07
    endloop
  endfacet
  facet normal 0.000000e+00 1.000000e+00 0.000000e+00
    outer loop
      vertex 4.964240e+01 -4.050000e+01 8.305164e-07
      vertex 9.000000e+01 -4.050000e+01 3.200001e+00
      vertex 9.000000e+01 -4.050000e+01 8.305164e-07
    endloop
  endfacet
  facet normal -2.441738e-01 9.697315e-01 0.000000e+00
    outer loop
      vertex 4.964240e+01 -4.050000e+01 3.200001e+00
      vertex 4.964240e+01 -4.050000e+01 8.305164e-07
      vertex 4.444930e+01 -4.180760e+01 7.733595e-07
    endloop
  endfacet
  facet normal -2.441738e-01 9.697315e-01 0.000000e+00
    outer loop
      vertex 4.964240e+01 -4.050000e+01 3.200001e+00
      vertex 4.444930e+01 -4.180760e+01 7.733595e-07
      vertex 4.444930e+01 -4.180760e+01 3.200001e+00
    endloop
  endfacet
  facet normal -1.752838e-01 9.845179e-01 0.000000e+00
    outer loop
      vertex 4.444930e+01 -4.180760e+01 3.200001e+00
      vertex 4.444930e+01 -4.180760e+01 7.733595e-07
      vertex 3.917709e+01 -4.274626e+01 7.323292e-07
    endloop
  endfacet
  facet normal -1.752838e-01 9.845179e-01 0.000000e+00
    outer loop
      vertex 4.444930e+01 -4.180760e+01 3.200001e+00
      vertex 3.917709e+01 -4.274626e+01 7.323292e-07
      vertex 3.917709e+01 -4.274626e+01 3.200001e+00
    endloop
  endfacet
  facet normal -1.055180e-01 9.944174e-01 0.000000e+00
    outer loop
      vertex 3.917709e+01 -4.274626e+01 3.200001e+00
      vertex 3.917709e+01 -4.274626e+01 7.323292e-07
      vertex 3.385180e+01 -4.331133e+01 7.076292e-07
    endloop
  endfacet
  facet normal -1.055180e-01 9.944174e-01 1.481797e-07
    outer loop
      vertex 3.917709e+01 -4.274626e+01 3.200001e+00
      vertex 3.385180e+01 -4.331133e+01 7.076292e-07
      vertex 3.385180e+01 -4.331133e+01 3.200001e+00
    endloop
  endfacet
  facet normal -3.523153e-02 9.993792e-01 1.489191e-07
    outer loop
      vertex 3.385180e+01 -4.331133e+01 3.200001e+00
      vertex 3.385180e+01 -4.331133e+01 7.076292e-07
      vertex 2.850000e+01 -4.350000e+01 6.993822e-07
    endloop
  endfacet
  facet normal -3.523144e-02 9.993792e-01 0.000000e+00
    outer loop
      vertex 3.385180e+01 -4.331133e+01 3.200001e+00
      vertex 2.850000e+01 -4.350000e+01 6.993822e-07
      vertex 2.850000e+01 -4.350000e+01 3.200001e+00
    endloop
  endfacet
  facet normal 0.000000e+00 1.000000e+00 0.000000e+00
    outer loop
      vertex -2.850000e+01 -4.350000e+01 3.200001e+00
      vertex 2.850000e+01 -4.350000e+01 3.200001e+00
      vertex -2.850000e+01 -4.350000e+01 6.993822e-07
    endloop
  endfacet
  facet normal 0.000000e+00 1.000000e+00 0.000000e+00
    outer loop
      vertex -2.850000e+01 -4.350000e+01 6.993822e-07
      vertex 2.850000e+01 -4.350000e+01 3.200001e+00
      vertex 2.850000e+01 -4.350000e+01 6.993822e-07
    endloop
  endfacet
  facet normal 3.523138e-02 9.993792e-01 0.000000e+00
    outer loop
      vertex -2.850000e+01 -4.350000e+01 3.200001e+00
      vertex -2.850000e+01 -4.350000e+01 6.993822e-07
      vertex -3.385182e+01 -4.331133e+01 7.076292e-07
    endloop
  endfacet
  facet normal 3.523129e-02 9.993792e-01 1.489191e-07
    outer loop
      vertex -2.850000e+01 -4.350000e+01 3.200001e+00
      vertex -3.385182e+01 -4.331133e+01 7.076292e-07
      vertex -3.385182e+01 -4.331133e+01 3.200001e+00
    endloop
  endfacet
  facet normal 1.055188e-01 9.944173e-01 1.481797e-07
    outer loop
      vertex -3.385182e+01 -4.331133e+01 3.200001e+00
      vertex -3.385182e+01 -4.331133e+01 7.076292e-07
      vertex -3.917707e+01 -4.274626e+01 7.323292e-07
    endloop
  endfacet
  facet normal 1.055189e-01 9.944173e-01 0.000000e+00
    outer loop
      vertex -3.385182e+01 -4.331133e+01 3.200001e+00
      vertex -3.917707e+01 -4.274626e+01 7.323292e-07
      vertex -3.917707e+01 -4.274626e+01 3.200001e+00
    endloop
  endfacet
  facet normal 1.752822e-01 9.845182e-01 0.000000e+00
    outer loop
      vertex -3.917707e+01 -4.274626e+01 3.200001e+00
      vertex -3.917707e+01 -4.274626e+01 7.323292e-07
      vertex -4.444932e+01 -4.180760e+01 7.733595e-07
    endloop
  endfacet
  facet normal 1.752822e-01 9.845182e-01 0.000000e+00
    outer loop
      vertex -3.917707e+01 -4.274626e+01 3.200001e+00
      vertex -4.444932e+01 -4.180760e+01 7.733595e-07
      vertex -4.444932e+01 -4.180760e+01 3.200001e+00
    endloop
  endfacet
  facet normal 2.441762e-01 9.697309e-01 0.000000e+00
    outer loop
      vertex -4.444932e+01 -4.180760e+01 3.200001e+00
      vertex -4.444932e+01 -4.180760e+01 7.733595e-07
      vertex -4.964237e+01 -4.050000e+01 8.305164e-07
    endloop
  endfacet
  facet normal 2.441762e-01 9.697309e-01 0.000000e+00
    outer loop
      vertex -4.444932e+01 -4.180760e+01 3.200001e+00
      vertex -4.964237e+01 -4.050000e+01 8.305164e-07
      vertex -4.964237e+01 -4.050000e+01 3.200001e+00
    endloop
  endfacet
  facet normal 0.000000e+00 -3.764504e-08 1.000000e+00
    outer loop
      vertex -9.000000e+01 -4.050000e+01 3.200001e+00
      vertex -9.000000e+01 -5.950000e+01 3.200000e+00
      vertex -4.964237e+01 -4.050000e+01 3.200001e+00
    endloop
  endfacet
  facet normal 0.000000e+00 -3.764504e-08 1.000000e+00
    outer loop
      vertex -4.964237e+01 -4.050000e+01 3.200001e+00
      vertex -9.000000e+01 -5.950000e+01 3.200000e+00
      vertex -4.964237e+01 -5.950000e+01 3.200000e+00
    endloop
  endfacet
  facet normal -9.478941e-09 -3.764504e-08 1.000000e+00
    outer loop
      vertex -4.964237e+01 -4.050000e+01 3.200001e+00
      vertex -4.964237e+01 -5.950000e+01 3.200000e+00
      vertex -4.444932e+01 -4.180760e+01 3.200001e+00
    endloop
  endfacet
  facet normal 1.099190e-08 -4.365361e-08 1.000000e+00
    outer loop
      vertex -4.444932e+01 -4.180760e+01 3.200001e+00
      vertex -4.964237e+01 -5.950000e+01 3.200000e+00
      vertex -4.444932e+01 -5.819240e+01 3.200000e+00
    endloop
  endfacet
  facet normal -7.772026e-09 -4.365361e-08 1.000000e+00
    outer loop
      vertex -4.444932e+01 -4.180760e+01 3.200001e+00
      vertex -4.444932e+01 -5.819240e+01 3.200000e+00
      vertex -3.917707e+01 -4.274626e+01 3.200001e+00
    endloop
  endfacet
  facet normal 8.777715e-09 -4.930255e-08 1.000000e+00
    outer loop
      vertex -3.917707e+01 -4.274626e+01 3.200001e+00
      vertex -4.444932e+01 -5.819240e+01 3.200000e+00
      vertex -3.917707e+01 -5.725374e+01 3.200000e+00
    endloop
  endfacet
  facet normal 3.953979e-08 -4.930255e-08 1.000000e+00
    outer loop
      vertex -3.917707e+01 -4.274626e+01 3.200001e+00
      vertex -3.917707e+01 -5.725374e+01 3.200000e+00
      vertex -3.385182e+01 -4.331133e+01 3.200001e+00
    endloop
  endfacet
  facet normal 3.782366e-09 -3.564515e-08 1.000000e+00
    outer loop
      vertex -3.385182e+01 -4.331133e+01 3.200001e+00
      vertex -3.917707e+01 -5.725374e+01 3.200000e+00
      vertex -3.385182e+01 -5.668867e+01 3.200000e+00
    endloop
  endfacet
  facet normal -1.256605e-09 -3.564515e-08 1.000000e+00
    outer loop
      vertex -3.385182e+01 -4.331133e+01 3.200001e+00
      vertex -3.385182e+01 -5.668867e+01 3.200000e+00
      vertex -2.850000e+01 -4.350000e+01 3.200001e+00
    endloop
  endfacet
  facet normal 1.293082e-09 -3.667978e-08 1.000000e+00
    outer loop
      vertex -2.850000e+01 -4.350000e+01 3.200001e+00
      vertex -3.385182e+01 -5.668867e+01 3.200000e+00
      vertex -2.850000e+01 -5.650000e+01 3.200000e+00
    endloop
  endfacet
  facet normal 0.000000e+00 -3.667978e-08 1.000000e+00
    outer loop
      vertex -2.850000e+01 -4.350000e+01 3.200001e+00
      vertex -2.850000e+01 -5.650000e+01 3.200000e+00
      vertex 2.850000e+01 -4.350000e+01 3.200001e+00
    endloop
  endfacet
  facet normal 0.000000e+00 -3.667978e-08 1.000000e+00
    outer loop
      vertex 2.850000e+01 -4.350000e+01 3.200001e+00
      vertex -2.850000e+01 -5.650000e+01 3.200000e+00
      vertex 2.850000e+01 -5.650000e+01 3.200000e+00
    endloop
  endfacet
  facet normal 1.293084e-09 -3.667978e-08 1.000000e+00
    outer loop
      vertex 2.850000e+01 -4.350000e+01 3.200001e+00
      vertex 2.850000e+01 -5.650000e+01 3.200000e+00
      vertex 3.385180e+01 -4.331133e+01 3.200001e+00
    endloop
  endfacet
  facet normal -1.256613e-09 -3.564515e-08 1.000000e+00
    outer loop
      vertex 3.385180e+01 -4.331133e+01 3.200001e+00
      vertex 2.850000e+01 -5.650000e+01 3.200000e+00
      vertex 3.385180e+01 -5.668867e+01 3.200000e+00
    endloop
  endfacet
  facet normal -4.098865e-08 -3.564515e-08 1.000000e+00
    outer loop
      vertex 3.385180e+01 -4.331133e+01 3.200001e+00
      vertex 3.385180e+01 -5.668867e+01 3.200000e+00
      vertex 3.917709e+01 -4.274626e+01 3.200001e+00
    endloop
  endfacet
  facet normal -5.231532e-09 -4.930255e-08 1.000000e+00
    outer loop
      vertex 3.917709e+01 -4.274626e+01 3.200001e+00
      vertex 3.385180e+01 -5.668867e+01 3.200000e+00
      vertex 3.917709e+01 -5.725374e+01 3.200000e+00
    endloop
  endfacet
  facet normal 8.777838e-09 -4.930255e-08 1.000000e+00
    outer loop
      vertex 3.917709e+01 -4.274626e+01 3.200001e+00
      vertex 3.917709e+01 -5.725374e+01 3.200000e+00
      vertex 4.444930e+01 -4.180760e+01 3.200001e+00
    endloop
  endfacet
  facet normal -7.772063e-09 -4.365361e-08 1.000000e+00
    outer loop
      vertex 4.444930e+01 -4.180760e+01 3.200001e+00
      vertex 3.917709e+01 -5.725374e+01 3.200000e+00
      vertex 4.444930e+01 -5.819240e+01 3.200000e+00
    endloop
  endfacet
  facet normal 1.099177e-08 -4.365361e-08 1.000000e+00
    outer loop
      vertex 4.444930e+01 -4.180760e+01 3.200001e+00
      vertex 4.444930e+01 -5.819240e+01 3.200000e+00
      vertex 4.964240e+01 -4.050000e+01 3.200001e+00
    endloop
  endfacet
  facet normal -9.478858e-09 -3.764504e-08 1.000000e+00
    outer loop
      vertex 4.964240e+01 -4.050000e+01 3.200001e+00
      vertex 4.444930e+01 -5.819240e+01 3.200000e+00
      vertex 4.964240e+01 -5.950000e+01 3.200000e+00
    endloop
  endfacet
  facet normal 0.000000e+00 -3.764504e-08 1.000000e+00
    outer loop
      vertex 4.964240e+01 -4.050000e+01 3.200001e+00
      vertex 4.964240e+01 -5.950000e+01 3.200000e+00
      vertex 9.000000e+01 -4.050000e+01 3.200001e+00
    endloop
  endfacet
  facet normal 0.000000e+00 -3.764504e-08 1.000000e+00
    outer loop
      vertex 9.000000e+01 -4.050000e+01 3.200001e+00
      vertex 4.964240e+01 -5.950000e+01 3.200000e+00
      vertex 9.000000e+01 -5.950000e+01 3.200000e+00
    endloop
  endfacet
  facet normal 2.047647e-15 4.371139e-08 -1.000000e+00
    outer loop
      vertex -4.444932e+01 -5.819240e+01 5.715702e-08
      vertex -4.964237e+01 -5.950000e+01 0.000000e+00
      vertex -4.444932e+01 -4.180760e+01 7.733595e-07
    endloop
  endfacet
  facet normal -1.979192e-15 4.371139e-08 -1.000000e+00
    outer loop
      vertex 4.444930e+01 -5.819240e+01 5.715702e-08
      vertex 4.964240e+01 -4.050000e+01 8.305164e-07
      vertex 4.964240e+01 -5.950000e+01 0.000000e+00
    endloop
  endfacet
  facet normal 0.000000e+00 4.371139e-08 -1.000000e+00
    outer loop
      vertex 4.964240e+01 -5.950000e+01 0.000000e+00
      vertex 4.964240e+01 -4.050000e+01 8.305164e-07
      vertex 9.000000e+01 -4.050000e+01 8.305164e-07
    endloop
  endfacet
  facet normal 0.000000e+00 4.371139e-08 -1.000000e+00
    outer loop
      vertex 4.964240e+01 -5.950000e+01 0.000000e+00
      vertex 9.000000e+01 -4.050000e+01 8.305164e-07
      vertex 9.000000e+01 -5.950000e+01 0.000000e+00
    endloop
  endfacet
  facet normal 1.121689e-15 4.371139e-08 -1.000000e+00
    outer loop
      vertex -4.444932e+01 -4.180760e+01 7.733595e-07
      vertex -4.964237e+01 -5.950000e+01 0.000000e+00
      vertex -4.964237e+01 -4.050000e+01 8.305164e-07
    endloop
  endfacet
  facet normal 0.000000e+00 4.371139e-08 -1.000000e+00
    outer loop
      vertex -4.964237e+01 -4.050000e+01 8.305164e-07
      vertex -4.964237e+01 -5.950000e+01 0.000000e+00
      vertex -9.000000e+01 -5.950000e+01 0.000000e+00
    endloop
  endfacet
  facet normal 0.000000e+00 4.371139e-08 -1.000000e+00
    outer loop
      vertex -4.964237e+01 -4.050000e+01 8.305164e-07
      vertex -9.000000e+01 -5.950000e+01 0.000000e+00
      vertex -9.000000e+01 -4.050000e+01 8.305164e-07
    endloop
  endfacet
  facet normal 5.719428e-15 4.371139e-08 -1.000000e+00
    outer loop
      vertex -4.444932e+01 -5.819240e+01 5.715702e-08
      vertex -4.444932e+01 -4.180760e+01 7.733595e-07
      vertex -3.917707e+01 -5.725374e+01 9.818717e-08
    endloop
  endfacet
  facet normal -1.579738e-15 4.371139e-08 -1.000000e+00
    outer loop
      vertex -3.917707e+01 -5.725374e+01 9.818717e-08
      vertex -4.444932e+01 -4.180760e+01 7.733595e-07
      vertex -3.917707e+01 -4.274626e+01 7.323292e-07
    endloop
  endfacet
  facet normal -7.760636e-15 4.371139e-08 -1.000000e+00
    outer loop
      vertex -3.917707e+01 -5.725374e+01 9.818717e-08
      vertex -3.917707e+01 -4.274626e+01 7.323292e-07
      vertex -3.385182e+01 -5.668867e+01 1.228872e-07
    endloop
  endfacet
  facet normal -2.246010e-15 4.371139e-08 -1.000000e+00
    outer loop
      vertex -3.385182e+01 -5.668867e+01 1.228872e-07
      vertex -3.917707e+01 -4.274626e+01 7.323292e-07
      vertex -3.385182e+01 -4.331133e+01 7.076292e-07
    endloop
  endfacet
  facet normal 3.883900e-15 4.371139e-08 -1.000000e+00
    outer loop
      vertex -3.385182e+01 -5.668867e+01 1.228872e-07
      vertex -3.385182e+01 -4.331133e+01 7.076292e-07
      vertex -2.850000e+01 -5.650000e+01 1.311342e-07
    endloop
  endfacet
  facet normal 4.084967e-15 4.371139e-08 -1.000000e+00
    outer loop
      vertex -2.850000e+01 -5.650000e+01 1.311342e-07
      vertex -3.385182e+01 -4.331133e+01 7.076292e-07
      vertex -2.850000e+01 -4.350000e+01 6.993822e-07
    endloop
  endfacet
  facet normal 0.000000e+00 4.371139e-08 -1.000000e+00
    outer loop
      vertex -2.850000e+01 -5.650000e+01 1.311342e-07
      vertex -2.850000e+01 -4.350000e+01 6.993822e-07
      vertex 2.850000e+01 -5.650000e+01 1.311342e-07
    endloop
  endfacet
  facet normal 0.000000e+00 4.371139e-08 -1.000000e+00
    outer loop
      vertex 2.850000e+01 -5.650000e+01 1.311342e-07
      vertex -2.850000e+01 -4.350000e+01 6.993822e-07
      vertex 2.850000e+01 -4.350000e+01 6.993822e-07
    endloop
  endfacet
  facet normal -3.881041e-15 4.371139e-08 -1.000000e+00
    outer loop
      vertex 2.850000e+01 -5.650000e+01 1.311342e-07
      vertex 2.850000e+01 -4.350000e+01 6.993822e-07
      vertex 3.385180e+01 -5.668867e+01 1.228872e-07
    endloop
  endfacet
  facet normal -4.082108e-15 4.371139e-08 -1.000000e+00
    outer loop
      vertex 3.385180e+01 -5.668867e+01 1.228872e-07
      vertex 2.850000e+01 -4.350000e+01 6.993822e-07
      vertex 3.385180e+01 -4.331133e+01 7.076292e-07
    endloop
  endfacet
  facet normal 7.984069e-15 4.371139e-08 -1.000000e+00
    outer loop
      vertex 3.385180e+01 -5.668867e+01 1.228872e-07
      vertex 3.385180e+01 -4.331133e+01 7.076292e-07
      vertex 3.917709e+01 -5.725374e+01 9.818717e-08
    endloop
  endfacet
  facet normal 2.469489e-15 4.371139e-08 -1.000000e+00
    outer loop
      vertex 3.917709e+01 -5.725374e+01 9.818717e-08
      vertex 3.385180e+01 -4.331133e+01 7.076292e-07
      vertex 3.917709e+01 -4.274626e+01 7.323292e-07
    endloop
  endfacet
  facet normal -6.163055e-15 4.371139e-08 -1.000000e+00
    outer loop
      vertex 3.917709e+01 -5.725374e+01 9.818717e-08
      vertex 3.917709e+01 -4.274626e+01 7.323292e-07
      vertex 4.444930e+01 -5.819240e+01 5.715702e-08
    endloop
  endfacet
  facet normal 1.136178e-15 4.371139e-08 -1.000000e+00
    outer loop
      vertex 4.444930e+01 -5.819240e+01 5.715702e-08
      vertex 3.917709e+01 -4.274626e+01 7.323292e-07
      vertex 4.444930e+01 -4.180760e+01 7.733595e-07
    endloop
  endfacet
  facet normal -1.053243e-15 4.371139e-08 -1.000000e+00
    outer loop
      vertex 4.444930e+01 -5.819240e+01 5.715702e-08
      vertex 4.444930e+01 -4.180760e+01 7.733595e-07
      vertex 4.964240e+01 -4.050000e+01 8.305164e-07
    endloop
  endfacet
endsolid Default
